:SAMPLES-PER-SECOND 30
:FULLY-SPECIFIED
:DEGREES
93
root  -66.7499 35.5384 18.832 -142.468 0.370651 179.066
RightUpLeg  -89.1821 -31.8385 29.367
RightLeg  43.0804 -2.66546 -2.97332
RightFoot  -3.50537 0.0469208 -1.03504
RightToes  0.000482159 0.542163 -0.142577
Spine  71.6773 -2.59729 3.87653
Spine1  5.73194 1.6802 -5.25033
HEad  -46.9657 -8.28134 10.3703
LeftShoulder1  7.66453 -26.6403 -18.6864
LeftArm  -86.5665 -69.6488 21.0925
LeftForeArm  7.71562 -19.0305 -2.36194
LeftHand  -0.25398 0.0180481 5.50724
RightShoulder  2.28449 13.4835 5.70713
RightArm  -72.8269 65.3933 -8.14296
RightForeArm  -21.1628 14.3125 3.07592
RightHand  -0.25578 9.31062 -2.5245
LeftUpLeg  -87.9305 26.3633 -41.6782
LeftLeg  47.0631 -1.89279 -1.74559
LeftFoot  -9.61567 -0.153722 13.9878
LeftToes  1.06248e-005 4.65855e-005 -8.18498e-006
94
root  -66.9265 35.5168 18.8167 -142.489 1.19162 179.23
RightUpLeg  -89.1695 -31.6469 29.3732
RightLeg  42.7699 -2.22515 -2.50683
RightFoot  -3.04924 0.0523363 -1.0041
RightToes  0.000482159 0.542163 -0.142577
Spine  71.815 -2.74287 3.65389
Spine1  5.71622 1.42401 -5.44489
HEad  -46.5892 -8.15163 10.5684
LeftShoulder1  7.95094 -26.1878 -20.1415
LeftArm  -86.9156 -68.7989 20.4388
LeftForeArm  8.22122 -20.9577 -3.52086
LeftHand  -0.25398 0.0180481 5.50724
RightShoulder  2.38517 13.6554 6.21709
RightArm  -72.1018 65.4397 -8.68539
RightForeArm  -21.0469 15.9314 3.91151
RightHand  -0.0877351 8.86416 -1.2155
LeftUpLeg  -88.4223 26.7897 -42.4446
LeftLeg  47.4371 -1.75375 -1.60918
LeftFoot  -10.0135 -0.107527 14.4082
LeftToes  1.06248e-005 4.65855e-005 -8.18498e-006
95
root  -67.0307 35.5755 18.8195 -142.605 1.90222 179.465
RightUpLeg  -88.7577 -31.4352 29.5518
RightLeg  41.9289 -1.85473 -2.08258
RightFoot  -2.25909 0.104344 -1.50556
RightToes  0.000482159 0.542163 -0.142577
Spine  71.6637 -2.76891 3.87942
Spine1  5.87292 1.60689 -5.58565
HEad  -46.7914 -8.52324 10.7324
LeftShoulder1  8.0344 -26.1659 -20.4644
LeftArm  -87.6189 -68.8063 19.0906
LeftForeArm  7.68196 -21.349 -3.70611
LeftHand  -0.25398 0.0180481 5.50724
RightShoulder  2.4688 13.8405 6.59046
RightArm  -72.4629 65.3554 -9.32258
RightForeArm  -20.5338 16.4571 4.07263
RightHand  -0.00867164 8.7061 -0.569291
LeftUpLeg  -88.6135 27.3218 -42.9138
LeftLeg  47.306 -1.66413 -1.49689
LeftFoot  -10.0204 -0.108262 14.5588
LeftToes  1.06248e-005 4.65855e-005 -8.18498e-006
96
root  -67.069 35.703 18.8363 -142.874 2.50578 179.484
RightUpLeg  -88.238 -31.5383 29.8884
RightLeg  40.7596 -1.21743 -1.41612
RightFoot  -1.16791 0.180941 -2.11884
RightToes  0.000482159 0.542163 -0.142577
Spine  71.4957 -2.90182 4.2579
Spine1  5.8167 1.83334 -5.84638
HEad  -47.3003 -8.88901 11.0345
LeftShoulder1  8.16325 -26.237 -20.8545
LeftArm  -86.6796 -68.9116 16.996
LeftForeArm  6.70472 -21.3255 -3.72529
LeftHand  -0.25398 0.0180481 5.50724
RightShoulder  2.63512 14.08 7.43257
RightArm  -72.9217 65.0211 -9.40775
RightForeArm  -18.7589 16.9991 4.09734
RightHand  0.0730682 8.56653 0.114628
LeftUpLeg  -88.2404 27.7811 -43.0966
LeftLeg  46.6543 -1.55649 -1.33599
LeftFoot  -9.61693 -0.160852 14.4707
LeftToes  1.06248e-005 4.65855e-005 -8.18498e-006
97
root  -67.0529 35.8694 18.8698 -143.117 3.20337 179.286
RightUpLeg  -87.9136 -31.7368 30.4722
RightLeg  39.4479 -0.357737 -0.598999
RightFoot  0.14666 0.307396 -3.03822
RightToes  0.000482159 0.542163 -0.142577
Spine  71.0723 -3.05728 4.42828
Spine1  5.66963 1.8885 -6.2252
HEad  -47.6963 -8.94837 11.5252
LeftShoulder1  8.40554 -26.234 -21.721
LeftArm  -83.2146 -68.4021 15.3245
LeftForeArm  5.04721 -21.3557 -3.87243
LeftHand  -0.25398 0.0180481 5.50724
RightShoulder  2.81602 14.3215 8.34168
RightArm  -72.1363 64.535 -8.53353
RightForeArm  -15.8964 17.9026 4.25476
RightHand  0.241022 7.97511 1.62097
LeftUpLeg  -87.6326 28.1838 -43.3894
LeftLeg  45.5662 -1.45487 -1.16606
LeftFoot  -9.02418 -0.237808 14.373
LeftToes  1.06248e-005 4.65855e-005 -8.18498e-006
98
root  -66.9854 36.0675 18.929 -143.234 4.07729 179.165
RightUpLeg  -87.4279 -31.5965 31.1056
RightLeg  37.8348 0.419538 0.0759035
RightFoot  1.5355 0.496511 -4.30066
RightToes  0.000482159 0.542163 -0.142577
Spine  70.1503 -2.93255 4.38458
Spine1  5.70128 1.99124 -6.38645
HEad  -47.7135 -8.97877 11.9177
LeftShoulder1  8.68326 -26.2676 -22.6708
LeftArm  -78.7776 -67.4771 13.7971
LeftForeArm  3.39058 -21.4427 -4.06379
LeftHand  -0.25398 0.0180481 5.50724
RightShoulder  2.90494 14.4394 8.77849
RightArm  -69.9156 64.0454 -6.73545
RightForeArm  -12.8576 18.9812 4.50318
RightHand  0.417373 6.96973 3.45528
LeftUpLeg  -87.2191 28.7542 -43.9665
LeftLeg  44.1271 -1.42415 -1.06528
LeftFoot  -8.34804 -0.327935 14.3982
LeftToes  1.06248e-005 4.65855e-005 -8.18498e-006
99
root  -66.8917 36.3151 19.0105 -143.456 4.88196 179.018
RightUpLeg  -86.4212 -31.3973 31.3832
RightLeg  35.78 0.984697 0.500241
RightFoot  2.94093 0.705793 -5.46578
RightToes  0.000482159 0.542163 -0.142577
Spine  68.8689 -2.73998 4.37268
Spine1  5.9138 2.09511 -6.18651
HEad  -47.3439 -9.24716 11.9751
LeftShoulder1  8.93945 -26.3968 -23.436
LeftArm  -74.7277 -66.388 10.5949
LeftForeArm  3.024 -21.9101 -4.31329
LeftHand  -0.25398 0.0180481 5.50724
RightShoulder  2.93323 14.4399 8.9537
RightArm  -66.4757 63.6742 -4.24669
RightForeArm  -10.671 20.215 4.80173
RightHand  0.468468 6.04539 4.31177
LeftUpLeg  -86.5786 29.4605 -44.6274
LeftLeg  42.2398 -1.51598 -1.07055
LeftFoot  -7.50581 -0.443376 14.5095
LeftToes  1.06248e-005 4.65855e-005 -8.18498e-006
100
root  -66.7865 36.6338 19.1016 -144.11 5.54533 178.806
RightUpLeg  -84.5674 -31.4318 31.1575
RightLeg  33.2217 1.36682 0.712938
RightFoot  4.39974 0.8991 -6.276
RightToes  0.000482159 0.542163 -0.142577
Spine  67.6487 -2.75957 4.49924
Spine1  6.14005 2.07083 -5.9283
HEad  -46.8178 -9.57217 11.8704
LeftShoulder1  9.14584 -26.4636 -24.0862
LeftArm  -70.7314 -64.7978 5.03038
LeftForeArm  3.96807 -23.4393 -4.77742
LeftHand  -0.25398 0.0180481 5.50724
RightShoulder  2.98503 14.4295 9.2865
RightArm  -61.8512 63.515 -1.1779
RightForeArm  -9.98732 21.6009 5.12951
RightHand  0.407345 5.4725 3.94228
LeftUpLeg  -85.2885 30.4684 -45.1213
LeftLeg  39.8622 -1.83447 -1.24916
LeftFoot  -6.41854 -0.590404 14.5541
LeftToes  1.06248e-005 4.65855e-005 -8.18498e-006
